<?xml version="1.0" encoding="UTF-8" standalone="no"?>
<svg
   xmlns:dc="http://purl.org/dc/elements/1.1/"
   xmlns:cc="http://creativecommons.org/ns#"
   xmlns:rdf="http://www.w3.org/1999/02/22-rdf-syntax-ns#"
   xmlns:svg="http://www.w3.org/2000/svg"
   xmlns="http://www.w3.org/2000/svg"
   viewBox="0 0 1052.3612 744.09375"
   height="744.09375"
   width="1052.3612"
   xml:space="preserve"
   version="1.1"
   id="svg2"><metadata
     id="metadata8"><rdf:RDF><cc:Work
         rdf:about=""><dc:format>image/svg+xml</dc:format><dc:type
           rdf:resource="http://purl.org/dc/dcmitype/StillImage" /></cc:Work></rdf:RDF></metadata><defs
     id="defs6"><clipPath
       id="clipPath16"
       clipPathUnits="userSpaceOnUse"><path
         id="path18"
         d="m 0,595.275 841.889,0 L 841.889,0 0,0 0,595.275 Z" /></clipPath></defs><g
     transform="matrix(1.25,0,0,-1.25,0,744.09375)"
     id="g10"><g
       id="g12"><g
         clip-path="url(#clipPath16)"
         id="g14"><g
           transform="translate(478.6094,225.1191)"
           id="g20"><path
             id="path22"
             style="fill:#231f20;fill-opacity:1;fill-rule:nonzero;stroke:none"
             d="m 0,0 c 0.018,-0.328 0.029,-0.647 0.029,-0.976 l 0,-26.285 c 0,-24.351 -32.935,-31.488 -32.935,-31.488 l 5.109,-1.907 c -29.367,-0.355 -31.154,-16.04 -31.154,-16.04 0,0 -1.787,15.685 -31.154,16.04 l 5.109,1.907 c 0,0 -32.942,7.137 -32.942,31.488 l 0,26.151 0,0.134 c 0,0.329 0.024,0.648 0.042,0.976 0.873,-23.561 32.9,-30.51 32.9,-30.51 l -5.109,-1.93 c 29.367,-0.337 31.154,-16.032 31.154,-16.032 0,0 1.787,15.695 31.154,16.04 l -5.109,1.922 c 0,0 32.039,6.949 32.906,30.51 m 121.436,109.805 c 0.035,-0.065 0.087,-0.156 0.181,-0.076 0,0.108 -0.088,0.272 0.047,0.334 0.158,-0.258 0.434,-0.258 0.539,-0.607 -0.305,-0.129 -1.002,0.179 -0.767,0.349 m -71.555,-2.11 c 0.398,1.477 0.785,2.945 1.154,4.407 0.809,3.114 1.078,6.55 2.08,9.515 1.641,4.834 4.746,9.451 7.354,13.632 2.677,4.269 5.344,8.215 8.379,11.191 1.435,1.36 2.742,1.823 4.523,3.097 1.506,1.037 2.608,2.848 3.961,3.618 0.891,0.528 1.893,0.894 2.959,1.181 -2.426,-21.065 -15.592,-36.149 -30.41,-46.641 M -4.143,258.103 c -0.076,-0.551 -1.078,-4.438 -1.435,-5.66 -0.346,1.201 0.808,4.728 1.265,6.524 0.44,1.823 0.399,0.648 0.17,-0.864 m -23.66,-44.068 c -0.75,2.443 0.78,5.215 1.178,8.209 0.662,5.083 0.387,10.696 2.437,14.736 -0.234,-7.614 -1.324,-16.819 -3.615,-22.945 m -61.511,8.209 c 0.398,-2.994 1.927,-5.766 1.183,-8.209 -2.297,6.126 -3.387,15.331 -3.621,22.945 2.057,-4.04 1.775,-9.653 2.438,-14.736 m -21.041,30.199 c -0.364,1.222 -1.36,5.109 -1.448,5.66 -0.222,1.512 -0.258,2.687 0.176,0.864 0.457,-1.796 1.617,-5.323 1.272,-6.524 m -87.821,-98.119 c 1.049,-0.284 2.045,-0.647 2.936,-1.169 1.342,-0.77 2.443,-2.581 3.949,-3.618 1.787,-1.274 3.088,-1.737 4.529,-3.097 3.03,-2.976 5.696,-6.922 8.373,-11.191 2.608,-4.181 5.713,-8.798 7.36,-13.632 0.996,-2.965 1.265,-6.401 2.074,-9.515 0.363,-1.451 0.744,-2.907 1.142,-4.369 -14.8,10.486 -27.937,25.559 -30.363,46.591 m -39.357,-44.868 c 0.105,0.349 0.381,0.349 0.539,0.607 0.135,-0.062 0.058,-0.226 0.047,-0.334 0.093,-0.08 0.146,0.011 0.181,0.076 0.235,-0.17 -0.457,-0.478 -0.767,-0.349 m 116.408,106.559 c -2.098,4.544 -2.156,11.622 -3,17.707 0.328,0.032 0.639,-0.009 0.592,-0.492 0.668,-2.479 1.418,-5.502 2.051,-8.654 0.58,-2.839 2.32,-6.522 0.357,-8.561 m -4.752,28.626 c -1.611,3.844 -1.418,12.636 -0.99,14.338 0.158,0.759 -0.135,1.717 0.222,0.29 1.231,-4.893 0.663,-10.444 0.768,-14.628 M 5.543,224.576 c 0.627,3.152 1.383,6.175 2.045,8.654 -0.041,0.483 0.269,0.524 0.603,0.492 -0.849,-6.085 -0.908,-13.163 -3.011,-17.707 -1.946,2.039 -0.211,5.722 0.363,8.561 m 5.162,34.693 c 0.358,1.427 0.065,0.469 0.229,-0.29 0.421,-1.702 0.609,-10.494 -0.985,-14.338 0.094,4.184 -0.469,9.735 0.756,14.628 M 165.604,122.244 c -1.999,4.257 -8.813,1.732 -13.336,1.298 -3.235,-0.311 -7.049,-0.062 -10.172,-0.401 -5.162,-0.61 -11.028,-3.619 -14.989,-1.562 -1.933,5.153 1.928,7.392 5.045,10.447 1.911,1.855 4.278,4.222 5.965,5.825 1.922,1.851 4.078,3.43 6.721,5.49 1.986,1.573 5.783,3.978 5.326,6.258 -0.574,2.815 -3.187,3.272 -5.432,2.61 -3.07,-0.911 -5.859,-3.706 -8.449,-5.505 -2.783,-1.913 -5.941,-3.644 -8.215,-5.698 -4.599,-4.195 -8.994,-8.851 -15.281,-11.988 -1.974,-0.973 -4.055,-1.342 -6.064,-2.069 -3.153,-1.136 -6.323,-3.375 -8.11,-4.725 -0.574,-0.425 -1.347,-0.689 -1.992,-1.055 -1.541,-0.85 -3.111,-1.655 -5.209,-2.707 -3.474,-1.72 -6.767,-4.509 -10.629,-6.445 -0.006,-0.003 -0.017,-0.009 -0.023,-0.015 l 0,42.445 c 3.17,0.771 6.826,0.917 9.908,2.291 3.932,1.746 8.221,4.65 12.27,7.128 3.697,2.277 7.335,5.637 11.566,8.584 3.105,2.148 9.797,5.745 11.215,10.113 1.136,3.551 -2.086,4.433 -1.506,8.47 0.387,2.59 2.344,4.53 2.355,6.616 0.006,2.965 -3.627,5.194 -6.673,5.124 -1.149,-0.032 -2.713,-1.269 -3.217,-0.396 1.166,3.671 1.406,7.996 1.148,10.515 0.539,-1.014 1.002,1.855 1.084,2.253 0.422,2.563 0.065,6.601 -2.039,7.896 -1.875,1.133 -6.58,0.788 -9.07,0.732 -3.504,-0.085 -6.334,0.018 -8.912,-0.147 -6.2,-0.439 -12.118,-1.957 -17.157,-1.766 -2.543,0.108 -2.49,0.709 -4.365,0.726 -2.021,-0.02 -6.879,-2.121 -8.191,-3.84 -3.363,-4.433 -4.231,-10.705 -6.346,-14.951 -2.168,-4.45 -4.348,-9.275 -6.662,-13.383 -1.066,-1.895 -2.754,-3.527 -3.809,-5.654 -1.271,-2.552 -1.88,-5.737 -3.316,-8.095 0.012,0.026 -0.469,-2.607 -1.441,-1.248 1.406,-0.067 -0.381,0.103 0.433,0.905 -3.135,-3.712 -6.814,-7.254 -9.961,-11.566 -3.457,-4.711 -5.871,-10.421 -8.871,-15.65 C 23.396,138.993 16.799,129.563 10.271,121.09 5.637,115.078 1.049,108.935 -3.521,102.832 c 0.515,2.306 1.054,4.658 1.599,7.099 1.928,8.554 2.736,17.836 6.768,23.973 1.793,2.69 5.133,4.509 7.47,7.494 4.459,5.652 8.666,11.666 13.014,17.473 2.326,3.097 5.672,5.596 6.779,8.695 1.231,3.498 0.727,7.456 0.944,11.288 0.474,7.802 4.008,13.5 5.519,20.216 0.803,3.515 1.108,7.35 2.268,10.585 1.306,3.618 6.158,9.222 -0.176,11.121 -9.146,2.751 -14.068,-9.481 -17.144,-14.786 -3.147,8.85 2.595,23.669 2.103,34.734 -0.182,3.662 -0.867,7.333 -0.785,10.632 0.176,8.288 2.496,23.37 -6.234,24.545 -3.551,0.489 -5.028,-2.156 -6.499,-3.735 1.155,6.752 0.094,11.66 -5.003,12.75 -6.358,1.368 -8.315,-4.424 -9.018,-11.511 -0.99,-0.114 -1.096,1.796 -1.945,2.719 -2.174,2.428 -6.985,2.777 -9.393,0.187 -2.59,-2.774 -3.492,-11.153 -4.676,-17.253 -1.347,-7.119 -1.939,-13.892 -4.347,-17.285 0.31,5.235 2.238,11.338 -3.112,12.261 -4.74,0.814 -6.861,-4.966 -8.836,-9.598 -2.009,-4.74 -3.152,-10.693 -4.406,-15.05 -1.529,-5.464 -2.543,-10.802 -3.65,-15.981 -1.16,-5.253 -3.035,-10.263 -4.178,-15.352 -2.631,-11.684 -3.504,-24.39 -2.303,-33.9 1.278,-10.125 3.323,-20.428 1.858,-31.567 -1.055,-8.086 -4.448,-16.21 -6.504,-24.003 -1.547,-5.877 -3.065,-11.815 -4.559,-17.777 -1.5,5.962 -3.012,11.9 -4.564,17.777 -2.045,7.793 -5.444,15.917 -6.504,24.003 -1.459,11.139 0.586,21.442 1.857,31.567 1.207,9.51 0.334,22.216 -2.297,33.9 -1.148,5.089 -3.011,10.099 -4.183,15.352 -1.102,5.179 -2.121,10.517 -3.645,15.981 -1.26,4.357 -2.408,10.31 -4.412,15.05 -1.974,4.632 -4.096,10.412 -8.836,9.598 -5.344,-0.923 -3.428,-7.026 -3.111,-12.261 -2.397,3.393 -2.994,10.166 -4.348,17.285 -1.178,6.1 -2.086,14.479 -4.67,17.253 -2.408,2.59 -7.224,2.241 -9.398,-0.187 -0.844,-0.923 -0.955,-2.833 -1.94,-2.719 -0.697,7.087 -2.66,12.879 -9.023,11.511 -5.098,-1.09 -6.158,-5.998 -4.998,-12.75 -1.477,1.579 -2.953,4.224 -6.51,3.735 -8.719,-1.175 -6.398,-16.257 -6.222,-24.545 0.076,-3.299 -0.616,-6.97 -0.792,-10.632 -0.498,-11.065 5.25,-25.884 2.116,-34.734 -3.094,5.305 -8.01,17.537 -17.145,14.786 -6.346,-1.899 -1.488,-7.503 -0.187,-11.121 1.166,-3.235 1.465,-7.07 2.279,-10.585 1.506,-6.716 5.027,-12.414 5.514,-20.216 0.216,-3.832 -0.293,-7.79 0.943,-11.288 1.102,-3.099 4.453,-5.598 6.773,-8.695 4.348,-5.807 8.555,-11.821 13.014,-17.473 2.344,-2.985 5.678,-4.804 7.477,-7.494 4.025,-6.137 4.84,-15.419 6.767,-23.973 0.844,-3.771 1.664,-7.339 2.42,-10.837 -5.496,7.327 -11.015,14.757 -16.599,21.996 -6.534,8.473 -13.12,17.903 -18.932,28.014 -3.012,5.229 -5.408,10.939 -8.871,15.65 -3.152,4.312 -6.82,7.854 -9.961,11.566 0.803,-0.802 -0.967,-0.972 0.434,-0.905 -0.967,-1.359 -1.442,1.274 -1.436,1.248 -1.447,2.358 -2.051,5.543 -3.322,8.095 -1.061,2.127 -2.748,3.759 -3.815,5.654 -2.308,4.108 -4.488,8.933 -6.662,13.383 -2.103,4.246 -2.976,10.518 -6.34,14.951 -1.312,1.719 -6.17,3.82 -8.179,3.84 -1.899,-0.017 -1.84,-0.618 -4.377,-0.726 -5.034,-0.191 -10.946,1.327 -17.151,1.766 -2.584,0.165 -5.414,0.062 -8.924,0.147 -2.484,0.056 -7.189,0.401 -9.07,-0.732 -2.098,-1.295 -2.449,-5.333 -2.033,-7.896 0.082,-0.398 0.533,-3.267 1.09,-2.253 -0.258,-2.519 -0.024,-6.844 1.148,-10.515 -0.51,-0.873 -2.074,0.364 -3.217,0.396 -3.052,0.07 -6.691,-2.159 -6.679,-5.124 0.011,-2.086 1.963,-4.026 2.349,-6.616 0.58,-4.037 -2.636,-4.919 -1.506,-8.47 1.436,-4.368 8.116,-7.965 11.227,-10.113 4.225,-2.947 7.863,-6.307 11.566,-8.584 4.049,-2.478 8.338,-5.382 12.27,-7.128 3.094,-1.377 6.756,-1.52 9.937,-2.3 l 0,-41 c -2.818,1.719 -5.408,3.691 -8.091,5.024 -2.104,1.052 -3.674,1.857 -5.215,2.707 -0.639,0.366 -1.418,0.63 -1.987,1.055 -1.792,1.35 -4.957,3.589 -8.115,4.725 -2.01,0.727 -4.09,1.096 -6.058,2.069 -6.293,3.137 -10.682,7.793 -15.287,11.988 -2.274,2.054 -5.438,3.785 -8.215,5.698 -2.584,1.799 -5.373,4.594 -8.45,5.505 -2.238,0.662 -4.851,0.205 -5.431,-2.61 -0.457,-2.28 3.34,-4.685 5.338,-6.258 2.631,-2.06 4.787,-3.639 6.709,-5.49 1.693,-1.603 4.054,-3.97 5.965,-5.825 3.111,-3.055 6.978,-5.294 5.05,-10.447 -3.966,-2.057 -9.826,0.952 -14.994,1.562 -3.117,0.339 -6.949,0.09 -10.172,0.401 -4.535,0.434 -11.338,2.959 -13.336,-1.298 -2.859,-6.097 6.903,-5.724 10.471,-6.07 7.108,-0.692 13.67,-2.438 20.525,-2.945 2.895,-0.202 7.483,0.153 8.754,-3.372 -0.632,-1.347 -1.875,-2.437 -2.162,-4.139 -0.515,-2.918 1.395,-5.924 5.473,-5.827 0.615,-1.067 0.984,-3.408 1.816,-4.137 0.827,-0.735 -0.246,0.387 0.645,0.05 0.392,-0.8 0.762,-2.268 1.67,-2.822 0.744,-0.457 2.15,-0.433 3.328,-0.899 0.762,-0.305 1.435,-1.014 2.074,-1.239 0.522,-0.188 1.137,-0.053 1.84,-0.205 2.807,-0.61 6.404,-1.773 8.818,-1.02 3.68,-1.172 7.694,-0.803 11.221,-1.901 2.813,-0.876 5.701,-3.264 8.332,-4.969 0.24,-0.155 0.486,-0.322 0.727,-0.478 9.966,-47.868 76.775,-62.346 76.775,-62.346 l -12.094,-4.538 c 5.297,-0.065 10.219,-0.337 14.783,-0.791 l 0,-2.133 c 0,-24.358 32.942,-31.491 32.942,-31.491 l -5.109,-1.908 c 29.367,-0.36 31.154,-16.04 31.154,-16.04 0,0 1.787,15.68 31.154,16.04 l -5.109,1.908 c 0,0 32.935,7.133 32.935,31.491 l 0,2.141 c 4.576,0.452 9.498,0.733 14.807,0.794 l -12.1,4.527 c 0,0 64.952,14.077 76.325,60.357 1.242,0.829 2.49,1.656 3.744,2.467 2.625,1.705 5.513,4.093 8.326,4.969 3.527,1.098 7.547,0.729 11.215,1.901 2.425,-0.753 6.017,0.41 8.824,1.02 0.703,0.152 1.318,0.017 1.84,0.205 0.633,0.225 1.312,0.934 2.074,1.239 1.184,0.466 2.59,0.442 3.328,0.899 0.908,0.554 1.272,2.022 1.67,2.822 0.891,0.337 -0.182,-0.785 0.645,-0.05 0.832,0.729 1.195,3.07 1.816,4.137 4.078,-0.097 5.988,2.909 5.473,5.827 -0.293,1.702 -1.53,2.792 -2.162,4.139 1.265,3.525 5.865,3.17 8.759,3.372 6.85,0.507 13.407,2.253 20.52,2.945 3.562,0.346 13.324,-0.027 10.471,6.07" /></g><g
           transform="translate(207.373,100.7041)"
           id="g24"><path
             id="path26"
             style="fill:#231f20;fill-opacity:1;fill-rule:nonzero;stroke:none"
             d="M 0,0 2.291,0 C 5.121,0 6.539,1.011 6.539,3.029 6.539,4.028 6.217,4.77 5.566,5.265 4.922,5.757 4.031,6.003 2.9,6.003 L 0,6.003 0,0 Z m 16.57,-11.013 0,-4.341 -7.828,0 -5.801,11.252 -2.941,0 0,-6.911 3.217,0 0,-4.341 -13.436,0 0,4.341 3.533,0 0,17.016 -3.533,0 0,4.339 15.504,0 c 2.918,0 5.022,-0.733 6.305,-2.206 1.289,-1.471 1.933,-3.135 1.933,-4.995 0,-2.921 -1.488,-5.048 -4.453,-6.393 l 4.172,-7.761 3.328,0 z" /></g><g
           transform="translate(239.0781,106.7627)"
           id="g28"><path
             id="path30"
             style="fill:#231f20;fill-opacity:1;fill-rule:nonzero;stroke:none"
             d="m 0,0 c -1.975,0 -3.645,-0.741 -5.021,-2.218 -1.372,-1.476 -2.057,-3.644 -2.057,-6.501 0,-2.525 0.674,-4.544 2.033,-6.058 1.354,-1.515 3.035,-2.274 5.045,-2.274 1.963,0 3.639,0.741 5.021,2.227 1.377,1.482 2.069,3.624 2.069,6.419 0,2.499 -0.662,4.526 -1.975,6.079 C 3.797,-0.773 2.086,0 0,0 m 0,4.69 c 4.43,0 7.916,-1.277 10.465,-3.84 2.537,-2.564 3.808,-5.684 3.808,-9.37 0,-3.691 -1.271,-6.817 -3.82,-9.375 C 7.904,-20.449 4.418,-21.724 0,-21.724 c -4.6,0 -8.127,1.316 -10.588,3.944 -2.467,2.628 -3.697,5.716 -3.697,9.26 0,3.671 1.265,6.794 3.797,9.364 C -7.957,3.407 -4.465,4.69 0,4.69" /></g><g
           transform="translate(278.3477,111.0459)"
           id="g32"><path
             id="path34"
             style="fill:#231f20;fill-opacity:1;fill-rule:nonzero;stroke:none"
             d="m 0,0 4.342,0 0,-9.05 -4.342,0 c -1.23,3.252 -3.369,4.878 -6.41,4.878 -2.514,0 -4.412,-0.855 -5.701,-2.566 -1.289,-1.714 -1.928,-3.765 -1.928,-6.156 0,-2.499 0.68,-4.52 2.045,-6.067 1.359,-1.547 3.094,-2.317 5.197,-2.317 1.723,0 3.234,0.583 4.524,1.755 1.294,1.171 2.168,2.794 2.625,4.875 l 5.062,-2.409 c -1.922,-5.964 -6.152,-8.95 -12.691,-8.95 -4.618,0 -8.104,1.239 -10.448,3.733 -2.343,2.487 -3.521,5.63 -3.521,9.439 0,2.707 0.609,5.077 1.828,7.113 1.225,2.031 2.865,3.56 4.928,4.588 2.062,1.029 4.324,1.541 6.785,1.541 3.07,0 5.637,-0.797 7.705,-2.396 L 0,0 Z" /></g><g
           transform="translate(300.666,85.3496)"
           id="g36"><path
             id="path38"
             style="fill:#231f20;fill-opacity:1;fill-rule:nonzero;stroke:none"
             d="m 0,0 0,4.342 3.006,0 -7.793,9.155 8.414,7.86 -3.094,0 0,4.339 12.545,0 0,-4.339 -3.14,0 -7.249,-7.081 8.426,-9.934 2.666,0 L 13.781,0 0,0 Z m -15.135,0 0,4.342 3.457,0 0,17.015 -3.457,0 0,4.339 13.395,0 0,-4.339 -3.252,0 0,-17.015 2.994,0 0,-4.342 -13.137,0 z" /></g><g
           transform="translate(334.8555,98.9668)"
           id="g40"><path
             id="path42"
             style="fill:#231f20;fill-opacity:1;fill-rule:nonzero;stroke:none"
             d="M 0,0 1.002,0 C 3.293,0 4.764,0.372 5.42,1.119 6.082,1.86 6.416,2.789 6.416,3.896 6.416,4.831 6.182,5.631 5.73,6.287 5.273,6.946 4.752,7.356 4.16,7.509 3.568,7.661 2.602,7.74 1.254,7.74 L 0,7.74 0,0 Z m 3.586,-9.275 0,-4.342 -13.541,0 0,4.342 3.269,0 0,17.015 -3.269,0 0,4.339 13.541,0 c 3.152,0 5.59,-0.735 7.307,-2.218 1.716,-1.473 2.578,-3.463 2.578,-5.965 0,-1.423 -0.305,-2.724 -0.908,-3.887 C 11.959,-1.154 11.186,-2.048 10.248,-2.669 9.305,-3.293 8.227,-3.718 7.014,-3.943 5.801,-4.172 4.283,-4.286 2.461,-4.286 l -2.461,0 0,-4.989 3.586,0 z" /></g><g
           transform="translate(361,97.877)"
           id="g44"><path
             id="path46"
             style="fill:#231f20;fill-opacity:1;fill-rule:nonzero;stroke:none"
             d="M 0,0 -2.145,7.74 -4.453,0 0,0 Z m 11.619,-8.186 0,-4.341 -12.639,0 0,4.341 3.288,0 -1.219,4.418 -6.668,0 -1.365,-4.418 3.433,0 0,-4.341 -11.379,0 0,4.341 3.176,0 5.01,17.016 -3.416,0 0,4.339 16.769,0 0,-4.339 -3.451,0 5.391,-17.016 3.07,0 z" /></g><g
           transform="translate(383.6641,98.9668)"
           id="g48"><path
             id="path50"
             style="fill:#231f20;fill-opacity:1;fill-rule:nonzero;stroke:none"
             d="M 0,0 0.996,0 C 3.287,0 4.764,0.372 5.42,1.119 6.082,1.86 6.41,2.789 6.41,3.896 6.41,4.831 6.182,5.631 5.725,6.287 5.273,6.946 4.746,7.356 4.16,7.509 3.563,7.661 2.596,7.74 1.254,7.74 L 0,7.74 0,0 Z m 3.586,-9.275 0,-4.342 -13.541,0 0,4.342 3.269,0 0,17.015 -3.269,0 0,4.339 13.541,0 c 3.152,0 5.59,-0.735 7.307,-2.218 1.716,-1.473 2.572,-3.463 2.572,-5.965 0,-1.423 -0.299,-2.724 -0.902,-3.887 C 11.959,-1.154 11.186,-2.048 10.242,-2.669 9.299,-3.293 8.227,-3.718 7.014,-3.943 5.801,-4.172 4.283,-4.286 2.455,-4.286 l -2.455,0 0,-4.989 3.586,0 z" /></g><g
           transform="translate(399.0684,85.3496)"
           id="g52"><path
             id="path54"
             style="fill:#231f20;fill-opacity:1;fill-rule:nonzero;stroke:none"
             d="m 0,0 0,4.342 3.088,0 0,17.015 -3.088,0 0,4.339 22.652,0 0,-8.144 -4.916,0 0,3.805 -7.957,0 0,-5.929 6.428,0 0,-4.342 -6.428,0 0,-6.744 7.957,0 0,3.844 4.916,0 L 22.652,0 0,0 Z" /></g><g
           transform="translate(434.1367,100.7041)"
           id="g56"><path
             id="path58"
             style="fill:#231f20;fill-opacity:1;fill-rule:nonzero;stroke:none"
             d="M 0,0 2.285,0 C 5.121,0 6.533,1.011 6.533,3.029 6.533,4.028 6.211,4.77 5.566,5.265 4.916,5.757 4.031,6.003 2.895,6.003 L 0,6.003 0,0 Z m 16.57,-11.013 0,-4.341 -7.828,0 -5.806,11.252 -2.936,0 0,-6.911 3.211,0 0,-4.341 -13.43,0 0,4.341 3.528,0 0,17.016 -3.528,0 0,4.339 15.498,0 c 2.924,0 5.022,-0.733 6.311,-2.206 1.283,-1.471 1.933,-3.135 1.933,-4.995 0,-2.921 -1.488,-5.048 -4.453,-6.393 l 4.172,-7.761 3.328,0 z" /></g><g
           transform="translate(461.8809,85.3496)"
           id="g60"><path
             id="path62"
             style="fill:#231f20;fill-opacity:1;fill-rule:nonzero;stroke:none"
             d="m 0,0 0,8.76 4.359,0 c 0.047,-1.6 0.469,-2.783 1.26,-3.536 0.785,-0.762 1.682,-1.14 2.695,-1.14 0.786,0 1.454,0.275 1.993,0.823 0.545,0.545 0.814,1.19 0.814,1.931 0,0.788 -0.264,1.447 -0.797,1.986 -0.527,0.533 -1.494,1.146 -2.9,1.831 -2.971,1.427 -4.992,2.693 -6.053,3.791 -1.06,1.099 -1.594,2.581 -1.594,4.442 0,2.244 0.703,3.984 2.11,5.217 1.4,1.234 3,1.852 4.781,1.852 2.045,0 3.627,-0.794 4.752,-2.391 l 0,2.13 4.342,0 0,-7.813 -4.342,0 c -0.141,1.207 -0.551,2.141 -1.248,2.801 -0.697,0.659 -1.506,0.987 -2.432,0.987 -0.715,0 -1.318,-0.191 -1.804,-0.574 -0.498,-0.378 -0.745,-0.879 -0.745,-1.492 0,-0.533 0.205,-1.034 0.61,-1.508 0.404,-0.472 1.594,-1.146 3.568,-2.016 1.899,-0.847 3.358,-1.611 4.371,-2.294 1.014,-0.683 1.817,-1.57 2.408,-2.663 0.592,-1.093 0.885,-2.353 0.885,-3.779 0,-2.543 -0.738,-4.453 -2.215,-5.737 -1.482,-1.277 -3.228,-1.919 -5.244,-1.919 -2.256,0 -3.996,0.832 -5.215,2.502 L 4.359,0 0,0 Z" /></g><g
           transform="translate(503.2773,111.0459)"
           id="g64"><path
             id="path66"
             style="fill:#231f20;fill-opacity:1;fill-rule:nonzero;stroke:none"
             d="m 0,0 4.342,0 0,-9.05 -4.342,0 c -1.23,3.252 -3.363,4.878 -6.404,4.878 -2.514,0 -4.418,-0.855 -5.701,-2.566 -1.29,-1.714 -1.934,-3.765 -1.934,-6.156 0,-2.499 0.685,-4.52 2.039,-6.067 1.365,-1.547 3.1,-2.317 5.203,-2.317 1.729,0 3.234,0.583 4.524,1.755 1.294,1.171 2.173,2.794 2.625,4.875 l 5.062,-2.409 c -1.916,-5.964 -6.152,-8.95 -12.691,-8.95 -4.618,0 -8.098,1.239 -10.442,3.733 -2.349,2.487 -3.527,5.63 -3.527,9.439 0,2.707 0.615,5.077 1.834,7.113 1.219,2.031 2.859,3.56 4.922,4.588 2.062,1.029 4.33,1.541 6.791,1.541 3.064,0 5.636,-0.797 7.699,-2.396 L 0,0 Z" /></g><g
           transform="translate(510.5371,85.3496)"
           id="g68"><path
             id="path70"
             style="fill:#231f20;fill-opacity:1;fill-rule:nonzero;stroke:none"
             d="m 0,0 0,4.342 3.902,0 0,17.015 -3.902,0 0,4.339 14.525,0 0,-4.339 -3.937,0 0,-17.015 3.937,0 L 14.525,0 0,0 Z" /></g><g
           transform="translate(527.6465,85.3496)"
           id="g72"><path
             id="path74"
             style="fill:#231f20;fill-opacity:1;fill-rule:nonzero;stroke:none"
             d="m 0,0 0,8.76 4.359,0 c 0.047,-1.6 0.469,-2.783 1.26,-3.536 0.785,-0.762 1.682,-1.14 2.69,-1.14 0.791,0 1.459,0.275 1.998,0.823 0.545,0.545 0.814,1.19 0.814,1.931 0,0.788 -0.264,1.447 -0.797,1.986 -0.527,0.533 -1.494,1.146 -2.9,1.831 -2.977,1.427 -4.992,2.693 -6.053,3.791 -1.06,1.099 -1.594,2.581 -1.594,4.442 0,2.244 0.703,3.984 2.11,5.217 1.4,1.234 3,1.852 4.781,1.852 2.045,0 3.627,-0.794 4.752,-2.391 l 0,2.13 4.336,0 0,-7.813 -4.336,0 c -0.141,1.207 -0.557,2.141 -1.248,2.801 -0.697,0.659 -1.506,0.987 -2.432,0.987 -0.715,0 -1.318,-0.191 -1.81,-0.574 -0.492,-0.378 -0.739,-0.879 -0.739,-1.492 0,-0.533 0.2,-1.034 0.61,-1.508 0.404,-0.472 1.594,-1.146 3.568,-2.016 1.899,-0.847 3.358,-1.611 4.371,-2.294 1.014,-0.683 1.817,-1.57 2.408,-2.663 0.586,-1.093 0.885,-2.353 0.885,-3.779 0,-2.543 -0.738,-4.453 -2.22,-5.737 -1.477,-1.277 -3.223,-1.919 -5.245,-1.919 -2.25,0 -3.99,0.832 -5.209,2.502 L 4.359,0 0,0 Z" /></g><g
           transform="translate(547.7266,85.3496)"
           id="g76"><path
             id="path78"
             style="fill:#231f20;fill-opacity:1;fill-rule:nonzero;stroke:none"
             d="m 0,0 0,8.76 4.365,0 C 4.412,7.16 4.828,5.977 5.619,5.224 6.404,4.462 7.307,4.084 8.314,4.084 c 0.786,0 1.454,0.275 1.993,0.823 0.545,0.545 0.814,1.19 0.814,1.931 0,0.788 -0.264,1.447 -0.791,1.986 -0.533,0.533 -1.5,1.146 -2.906,1.831 -2.971,1.427 -4.992,2.693 -6.053,3.791 -1.06,1.099 -1.588,2.581 -1.588,4.442 0,2.244 0.703,3.984 2.104,5.217 1.4,1.234 2.994,1.852 4.781,1.852 2.045,0 3.627,-0.794 4.752,-2.391 l 0,2.13 4.342,0 0,-7.813 -4.342,0 c -0.141,1.207 -0.557,2.141 -1.248,2.801 -0.697,0.659 -1.506,0.987 -2.432,0.987 -0.709,0 -1.318,-0.191 -1.81,-0.574 -0.492,-0.378 -0.739,-0.879 -0.739,-1.492 0,-0.533 0.205,-1.034 0.61,-1.508 0.404,-0.472 1.599,-1.146 3.568,-2.016 1.899,-0.847 3.358,-1.611 4.371,-2.294 1.014,-0.683 1.817,-1.57 2.408,-2.663 0.592,-1.093 0.885,-2.353 0.885,-3.779 0,-2.543 -0.738,-4.453 -2.215,-5.737 -1.476,-1.277 -3.228,-1.919 -5.25,-1.919 -2.25,0 -3.99,0.832 -5.203,2.502 L 4.365,0 0,0 Z" /></g><g
           transform="translate(582.1621,106.7627)"
           id="g80"><path
             id="path82"
             style="fill:#231f20;fill-opacity:1;fill-rule:nonzero;stroke:none"
             d="m 0,0 c -1.975,0 -3.639,-0.741 -5.016,-2.218 -1.371,-1.476 -2.062,-3.644 -2.062,-6.501 0,-2.525 0.68,-4.544 2.033,-6.058 1.354,-1.515 3.041,-2.274 5.045,-2.274 1.969,0 3.645,0.741 5.027,2.227 1.377,1.482 2.063,3.624 2.063,6.419 0,2.499 -0.656,4.526 -1.975,6.079 C 3.797,-0.773 2.092,0 0,0 m 0,4.69 c 4.43,0 7.922,-1.277 10.465,-3.84 2.543,-2.564 3.814,-5.684 3.814,-9.37 0,-3.691 -1.271,-6.817 -3.826,-9.375 C 7.904,-20.449 4.418,-21.724 0,-21.724 c -4.594,0 -8.121,1.316 -10.588,3.944 -2.461,2.628 -3.691,5.716 -3.691,9.26 0,3.671 1.265,6.794 3.797,9.364 C -7.957,3.407 -4.459,4.69 0,4.69" /></g><g
           transform="translate(609.4141,100.7041)"
           id="g84"><path
             id="path86"
             style="fill:#231f20;fill-opacity:1;fill-rule:nonzero;stroke:none"
             d="M 0,0 2.285,0 C 5.121,0 6.533,1.011 6.533,3.029 6.533,4.028 6.211,4.77 5.566,5.265 4.916,5.757 4.031,6.003 2.895,6.003 L 0,6.003 0,0 Z m 16.57,-11.013 0,-4.341 -7.828,0 -5.806,11.252 -2.936,0 0,-6.911 3.211,0 0,-4.341 -13.43,0 0,4.341 3.528,0 0,17.016 -3.528,0 0,4.339 15.498,0 c 2.924,0 5.022,-0.733 6.311,-2.206 1.283,-1.471 1.928,-3.135 1.928,-4.995 0,-2.921 -1.483,-5.048 -4.448,-6.393 l 4.172,-7.761 3.328,0 z" /></g><g
           transform="translate(627.7012,85.3496)"
           id="g88"><path
             id="path90"
             style="fill:#231f20;fill-opacity:1;fill-rule:nonzero;stroke:none"
             d="m 0,0 0,8.76 4.359,0 C 4.406,7.16 4.828,5.977 5.613,5.224 6.404,4.462 7.301,4.084 8.309,4.084 c 0.791,0 1.453,0.275 1.998,0.823 0.539,0.545 0.808,1.19 0.808,1.931 0,0.788 -0.263,1.447 -0.791,1.986 -0.527,0.533 -1.494,1.146 -2.906,1.831 -2.971,1.427 -4.986,2.693 -6.047,3.791 -1.066,1.099 -1.594,2.581 -1.594,4.442 0,2.244 0.698,3.984 2.104,5.217 1.4,1.234 3,1.852 4.787,1.852 2.045,0 3.627,-0.794 4.746,-2.391 l 0,2.13 4.342,0 0,-7.813 -4.342,0 c -0.135,1.207 -0.551,2.141 -1.248,2.801 -0.691,0.659 -1.5,0.987 -2.426,0.987 -0.715,0 -1.318,-0.191 -1.816,-0.574 -0.486,-0.378 -0.733,-0.879 -0.733,-1.492 0,-0.533 0.2,-1.034 0.61,-1.508 0.404,-0.472 1.594,-1.146 3.562,-2.016 1.905,-0.847 3.358,-1.611 4.371,-2.294 1.02,-0.683 1.823,-1.57 2.409,-2.663 0.591,-1.093 0.89,-2.353 0.89,-3.779 0,-2.543 -0.744,-4.453 -2.22,-5.737 -1.477,-1.277 -3.229,-1.919 -5.25,-1.919 -2.25,0 -3.985,0.832 -5.204,2.502 L 4.359,0 0,0 Z" /></g></g></g></g></svg>